<?xml version="1.0" standalone="no"?>
<!DOCTYPE svg PUBLIC "-//W3C//DTD SVG 20010904//EN"
 "http://www.w3.org/TR/2001/REC-SVG-20010904/DTD/svg10.dtd">
<svg version="1.0" xmlns="http://www.w3.org/2000/svg"
 width="174.000000pt" height="174.000000pt" viewBox="0 0 174.000000 174.000000"
 preserveAspectRatio="xMidYMid meet">

<g transform="translate(0.000000,174.000000) scale(0.100000,-0.100000)"
fill="#000000" stroke="none">
<path d="M0 1258 c0 -265 4 -478 8 -473 5 6 43 53 84 105 65 82 78 105 92 165
10 39 25 90 35 115 l17 45 -57 56 c-70 68 -95 136 -85 232 12 115 63 185 158
218 l53 18 -152 1 -153 0 0 -482z"/>
<path d="M416 1726 c17 -8 47 -28 66 -45 l36 -31 63 20 c214 67 437 65 617 -7
62 -24 63 -24 115 -7 104 35 244 14 300 -44 57 -60 81 -159 57 -241 -14 -51
-57 -107 -110 -145 l-48 -34 24 -99 c13 -54 24 -108 24 -119 0 -12 7 -27 15
-34 8 -6 42 -57 76 -113 34 -56 68 -111 76 -122 11 -16 13 64 13 508 l0 527
-677 0 c-576 -1 -673 -3 -647 -14z"/>
<path d="M278 1710 c-89 -27 -140 -81 -159 -169 -23 -111 6 -199 91 -273 l50
-44 -24 -65 c-13 -35 -30 -91 -37 -124 -11 -51 -25 -75 -96 -164 l-83 -104 2
-191 3 -191 848 -3 847 -2 0 148 0 148 -77 123 c-103 161 -98 152 -122 261
-11 52 -23 105 -26 116 -6 18 4 30 53 68 156 119 149 322 -13 392 -55 24 -165
22 -228 -3 l-49 -19 -46 22 c-160 76 -397 83 -613 19 -84 -25 -101 -24 -129
10 -37 45 -125 65 -192 45z m802 -46 c186 -46 261 -126 365 -388 81 -206 103
-420 56 -541 -28 -70 -100 -146 -176 -187 -27 -14 -113 -43 -190 -63 -244 -64
-436 -59 -592 15 -125 59 -288 183 -319 242 -60 115 -18 341 109 594 91 181
172 272 279 310 123 44 330 51 468 18z"/>
<path d="M840 1340 c-19 -16 -43 -29 -52 -30 -10 0 -18 -4 -18 -10 0 -13 16
-13 42 1 11 6 22 8 25 5 11 -10 -42 -45 -77 -52 -58 -10 -67 -14 -94 -39 -33
-31 -26 -45 18 -38 19 3 36 1 40 -6 14 -22 86 -13 120 16 17 14 30 29 30 32
-1 3 -5 17 -9 30 -5 16 -4 21 4 17 6 -4 11 -16 11 -27 0 -10 5 -19 10 -19 6 0
10 31 9 75 -1 85 -7 90 -59 45z m5 -70 c-3 -5 -12 -10 -18 -10 -7 0 -6 4 3 10
19 12 23 12 15 0z"/>
<path d="M1116 1352 c23 -22 105 -65 111 -58 2 2 -9 18 -25 34 -20 21 -36 29
-50 25 -11 -2 -23 0 -26 6 -4 6 -12 11 -18 11 -7 0 -3 -8 8 -18z"/>
<path d="M726 1280 c-17 -6 -18 -7 -3 -13 9 -3 19 -2 23 4 9 15 2 18 -20 9z"/>
<path d="M1095 1253 c-24 -6 -45 -22 -45 -34 0 -13 34 -11 47 2 8 8 19 7 39
-4 16 -8 48 -18 72 -22 33 -5 42 -4 42 8 0 27 -106 62 -155 50z"/>
<path d="M748 968 c-24 -12 -38 -27 -38 -39 0 -10 3 -19 8 -19 12 0 72 58 72
69 0 13 3 14 -42 -11z"/>
<path d="M1085 980 c-11 -5 -55 -9 -97 -9 -77 -1 -104 -15 -50 -27 15 -3 39
-10 54 -16 34 -13 87 -2 115 25 33 29 20 45 -22 27z"/>
<path d="M1050 846 l-45 -13 52 -7 c39 -6 57 -4 72 7 41 28 0 34 -79 13z"/>
<path d="M825 840 c-26 -3 -35 -8 -27 -13 16 -11 193 3 186 14 -5 9 -86 8
-159 -1z"/>
<path d="M1085 739 c-16 -5 -57 -7 -90 -4 l-60 5 34 -31 c30 -28 39 -31 78
-26 45 5 83 29 83 54 0 15 -3 15 -45 2z"/>
<path d="M0 191 l0 -191 107 0 c83 0 104 3 95 12 -7 7 -12 25 -12 40 0 15 -4
28 -9 28 -22 0 -20 46 4 80 25 34 25 35 5 38 -14 2 -20 11 -20 28 0 13 5 24
10 24 6 0 10 9 10 19 0 17 18 31 41 31 5 0 14 -12 20 -27 7 -20 13 -23 21 -15
7 7 22 12 34 12 12 0 24 7 28 15 7 19 45 20 52 1 3 -8 19 -17 36 -20 30 -6 30
-7 25 -49 -5 -39 -5 -41 10 -22 8 11 24 39 34 62 19 41 20 42 66 38 26 -1 49
-8 51 -14 2 -6 25 -11 51 -11 68 0 86 -25 58 -80 -10 -21 -10 -34 4 -75 l16
-50 32 50 32 50 -28 5 c-24 5 -28 10 -26 37 4 52 21 83 43 83 11 0 23 -7 27
-17 5 -14 8 -13 14 5 9 23 43 30 54 12 4 -7 13 -6 26 1 18 9 26 5 60 -32 21
-23 39 -49 39 -56 0 -17 22 -12 28 5 2 7 -3 12 -11 12 -17 0 -29 24 -21 44 7
18 229 34 253 19 12 -8 16 -30 17 -97 1 -54 7 -92 15 -102 9 -11 10 -23 3 -42
-8 -23 -16 -27 -52 -30 -24 -2 -49 1 -55 7 -8 6 -20 5 -37 -4 -22 -13 -10 -14
110 -14 93 0 128 3 112 10 -31 12 -27 53 6 57 20 3 22 9 22 68 0 52 3 66 18
72 10 4 -8 9 -48 12 -61 5 -65 6 -65 30 l0 25 123 3 122 3 0 -29 c0 -21 -10
-35 -40 -58 -39 -28 -40 -30 -40 -91 0 -49 -4 -67 -20 -83 l-20 -20 155 0 155
0 0 183 0 182 -856 -3 c-627 -2 -860 1 -870 9 -12 10 -14 -19 -14 -180z"/>
<path d="M210 260 c0 -11 -4 -20 -10 -20 -5 0 -10 -4 -10 -10 0 -5 11 -10 25
-10 32 0 31 -8 -5 -59 -17 -23 -28 -47 -24 -52 4 -8 9 -7 15 2 6 9 9 -5 9 -38
0 -40 4 -53 15 -53 11 0 15 12 15 51 0 47 1 50 17 38 15 -13 16 -12 11 8 -4
13 -2 26 3 29 13 7 11 -36 -2 -75 -6 -18 -8 -35 -4 -39 12 -12 33 27 40 74 l6
45 20 -38 c18 -35 18 -39 3 -50 -9 -7 -21 -14 -27 -16 -6 -2 -7 -9 -3 -15 6
-9 15 -8 37 5 27 16 31 16 58 0 22 -13 31 -14 37 -5 4 6 3 13 -3 15 -6 2 -18
10 -28 17 -16 12 -16 15 -1 44 23 45 21 62 -9 62 -20 0 -25 5 -25 25 0 16 6
25 15 25 8 0 15 -7 15 -16 0 -26 25 -9 28 19 3 24 0 27 -27 27 -21 0 -31 5
-31 15 0 8 -4 15 -10 15 -5 0 -10 -7 -10 -15 0 -10 -11 -15 -35 -15 l-35 0 0
-47 c0 -25 -3 -43 -7 -40 -3 4 -13 1 -21 -6 -14 -10 -15 -9 -7 8 14 35 18 75
7 75 -6 0 -14 9 -17 20 -3 11 -11 20 -16 20 -5 0 -9 -9 -9 -20z m138 -62 c-5
-34 -38 -37 -38 -4 0 20 5 26 21 26 15 0 20 -5 17 -22z m42 -60 c0 -7 -5 -20
-10 -28 -9 -13 -12 -12 -25 4 -21 28 -19 36 10 36 14 0 25 -6 25 -12z"/>
<path d="M495 223 c-40 -75 -40 -77 -21 -70 14 6 16 -3 16 -63 0 -56 3 -70 15
-70 12 0 15 17 15 95 0 65 5 105 15 124 13 26 11 41 -4 41 -3 0 -19 -26 -36
-57z"/>
<path d="M570 268 c0 -8 -8 -30 -19 -50 -17 -35 -17 -48 -1 -48 4 0 12 11 18
25 10 22 18 25 63 25 41 0 50 -3 46 -15 -9 -23 11 -28 22 -6 23 42 15 51 -49
51 -39 0 -59 4 -57 11 1 6 -4 14 -10 16 -7 3 -13 -2 -13 -9z"/>
<path d="M842 248 c-11 -45 -42 -51 -42 -9 0 17 -4 31 -9 31 -9 0 -12 -8 -27
-62 -4 -15 1 -18 30 -18 35 0 35 0 24 -27 -7 -16 -26 -49 -44 -75 -30 -42 -33
-58 -14 -58 6 0 19 17 67 89 1 2 11 -7 22 -20 l20 -24 -34 -16 c-24 -10 -31
-19 -25 -28 6 -11 16 -9 47 9 l40 22 40 -21 c38 -19 53 -19 53 0 0 4 -16 13
-35 19 -19 6 -35 14 -35 17 0 3 9 16 20 30 33 43 27 53 -35 53 -42 0 -55 3
-55 15 0 12 14 15 70 15 40 0 70 4 70 10 0 6 -7 10 -16 10 -10 0 -14 6 -11 14
7 17 -38 62 -47 47 -4 -6 4 -21 16 -33 l23 -23 -33 -3 c-50 -5 -59 2 -54 37 6
42 -15 40 -26 -1z m78 -127 c-16 -31 -25 -32 -50 -6 l-23 25 42 0 c38 0 41 -2
31 -19z"/>
<path d="M1130 190 c0 -97 18 -107 22 -12 l3 67 38 3 37 3 0 -70 c0 -56 3 -71
15 -71 12 0 15 16 15 80 l0 80 -65 0 -65 0 0 -80z"/>
<path d="M1020 250 c0 -5 9 -10 20 -10 16 0 20 -7 20 -30 0 -20 -5 -30 -15
-30 -8 0 -15 -7 -15 -15 0 -8 7 -15 15 -15 25 0 20 -57 -6 -65 -14 -5 -18 -10
-11 -17 13 -13 92 11 92 28 0 7 -8 10 -20 7 -16 -4 -20 0 -20 21 0 16 5 26 15
26 8 0 15 7 15 15 0 8 -7 15 -15 15 -10 0 -15 10 -15 30 0 23 4 30 20 30 11 0
20 5 20 10 0 6 -22 10 -50 10 -27 0 -50 -4 -50 -10z"/>
<path d="M1320 250 c0 -5 39 -11 88 -12 l87 -3 -37 -25 c-37 -25 -38 -26 -38
-92 0 -66 -1 -68 -25 -68 -32 0 -32 -18 0 -26 42 -10 55 10 55 86 l0 67 40 27
c68 45 56 56 -65 56 -60 0 -105 -4 -105 -10z"/>
<path d="M890 240 c0 -5 5 -10 11 -10 5 0 7 5 4 10 -3 6 -8 10 -11 10 -2 0 -4
-4 -4 -10z"/>
<path d="M1178 163 c-4 -62 -7 -68 -42 -99 -23 -20 -33 -35 -26 -39 13 -8 59
20 67 41 9 23 23 16 23 -12 0 -23 3 -25 38 -22 30 2 38 7 40 26 4 25 -13 30
-22 7 -10 -28 -36 -17 -36 15 0 17 -4 30 -10 30 -6 0 -10 27 -10 60 0 81 -17
76 -22 -7z"/>
<path d="M620 125 c0 -68 -2 -75 -20 -75 -11 0 -20 -7 -20 -16 0 -11 8 -14 28
-12 27 3 27 3 30 91 2 55 -1 87 -8 87 -6 0 -10 -30 -10 -75z"/>
<path d="M993 173 c-7 -3 -13 -11 -13 -19 0 -8 -7 -28 -15 -44 -14 -27 -14
-28 15 -39 16 -5 29 -7 29 -3 -3 20 3 32 16 32 19 0 20 26 1 37 -8 4 -15 15
-17 24 -2 9 -10 14 -16 12z"/>
<path d="M666 162 c-7 -12 23 -102 35 -102 12 0 11 20 -2 61 -14 41 -25 54
-33 41z"/>
<path d="M560 135 c-18 -47 -22 -75 -12 -75 9 0 42 70 42 90 0 20 -21 9 -30
-15z"/>
<path d="M431 118 c-10 -27 -8 -35 9 -53 24 -26 24 -29 4 -49 -14 -15 -12 -16
17 -16 26 0 30 3 21 12 -7 7 -12 34 -12 61 0 28 -6 54 -14 63 -12 12 -16 9
-25 -18z"/>
<path d="M591 84 c0 -11 3 -14 6 -6 3 7 2 16 -1 19 -3 4 -6 -2 -5 -13z"/>
<path d="M661 53 c-1 -19 -8 -36 -18 -42 -13 -8 5 -10 69 -11 72 0 86 2 82 15
-5 11 -10 12 -25 2 -17 -10 -22 -9 -33 6 -7 9 -23 17 -35 17 -13 0 -25 9 -31
23 -8 20 -9 19 -9 -10z"/>
<path d="M1040 43 c-14 -3 -33 -13 -43 -24 -17 -19 -16 -19 43 -19 56 0 60 1
51 19 -6 10 -7 21 -4 25 7 6 -6 6 -47 -1z"/>
<path d="M537 20 c-4 -16 0 -20 21 -19 15 0 21 3 15 6 -7 2 -13 11 -13 19 0
21 -17 17 -23 -6z"/>
<path d="M860 19 l-35 -18 75 0 c41 0 68 3 60 6 -8 3 -26 11 -40 18 -21 11
-30 10 -60 -6z"/>
<path d="M340 15 c-24 -14 -23 -14 30 -14 53 0 54 0 30 14 -14 8 -27 14 -30
14 -3 0 -16 -6 -30 -14z"/>
<path d="M258 3 c12 -2 30 -2 40 0 9 3 -1 5 -23 4 -22 0 -30 -2 -17 -4z"/>
</g>
</svg>
